<svg width="106.075134" height="29.892578" viewBox="0 0 106.075 29.8926" fill="none" xmlns="http://www.w3.org/2000/svg" xmlns:xlink="http://www.w3.org/1999/xlink">
	<desc>
			Created with Pixso.
	</desc>
	<defs/>
	<path id="LOGO" d="M33.06 0C40.5 0 45.9 5.74 45.9 14.95C45.9 24.15 40.5 29.89 33.06 29.89C25.62 29.89 20.22 24.15 20.22 14.95C20.22 5.74 25.62 0 33.06 0ZM75.33 9.49L71.7 9.49C70.47 5.67 67.6 3.3 63.41 3.3C58.23 3.3 54.08 7.39 54.08 14.95C54.08 22.5 58.23 26.59 63.63 26.59C68.56 26.59 72 23.3 72.1 18.07L64.42 18.07L64.42 14.95L75.5 14.95L75.5 18.07C75.5 25.27 70.56 29.89 63.63 29.89C55.91 29.89 50.67 24.15 50.67 14.95C50.67 5.74 55.94 0 63.41 0C69.54 0 74.25 3.86 75.33 9.49ZM93.23 0C100.67 0 106.07 5.74 106.07 14.95C106.07 24.15 100.67 29.89 93.23 29.89C85.79 29.89 80.39 24.15 80.39 14.95C80.39 5.74 85.79 0 93.23 0ZM17.04 29.49L0 29.49L0 0.4L3.51 0.4L3.51 26.36L17.04 26.36L17.04 29.49ZM33.06 26.59C38.34 26.59 42.49 22.5 42.49 14.95C42.49 7.39 38.34 3.3 33.06 3.3C27.77 3.3 23.62 7.39 23.62 14.95C23.62 22.5 27.77 26.59 33.06 26.59ZM93.23 26.59C98.51 26.59 102.66 22.5 102.66 14.95C102.66 7.39 98.51 3.3 93.23 3.3C87.95 3.3 83.79 7.39 83.79 14.95C83.79 22.5 87.95 26.59 93.23 26.59Z" fill="#4285F3" fill-opacity="1.000000" fill-rule="evenodd"/>
</svg>
