<svg width="16.977356" height="14.973877" viewBox="0 0 16.9774 14.9739" fill="none" xmlns="http://www.w3.org/2000/svg" xmlns:xlink="http://www.w3.org/1999/xlink">
	<desc>
			Created with Pixso.
	</desc>
	<defs/>
	<path id="Vector" d="M13.78 0.96C13.27 0.75 12.74 0.65 12.2 0.65C11.65 0.65 11.12 0.75 10.62 0.96C10.12 1.17 9.66 1.47 9.28 1.85L8.48 2.65L7.69 1.85C6.91 1.08 5.87 0.65 4.77 0.65C3.68 0.65 2.63 1.08 1.85 1.85C1.08 2.63 0.65 3.68 0.65 4.77C0.65 5.87 1.08 6.92 1.85 7.69L2.65 8.48L8.48 14.32L14.32 8.48L15.11 7.69C15.5 7.31 15.8 6.85 16.01 6.35C16.22 5.85 16.32 5.31 16.32 4.77C16.32 4.23 16.22 3.69 16.01 3.19C15.8 2.69 15.5 2.24 15.11 1.85C14.73 1.47 14.28 1.17 13.78 0.96Z" stroke="#5C635A" stroke-opacity="1.000000" stroke-width="1.300000" stroke-linejoin="round"/>
</svg>
