<svg width="21.927246" height="22.437134" viewBox="0 0 21.9272 22.4371" fill="none" xmlns="http://www.w3.org/2000/svg" xmlns:xlink="http://www.w3.org/1999/xlink">
	<desc>
			Created with Pixso.
	</desc>
	<defs/>
	<path id="Vector" d="M1.16 6.24C1.85 4.79 2.83 3.57 4.07 2.55C5.74 1.17 7.66 0.34 9.82 0.08C12.35 -0.22 14.72 0.26 16.92 1.58C17.47 1.9 17.98 2.28 18.47 2.68C18.59 2.78 18.58 2.84 18.47 2.93C17.47 3.93 16.48 4.92 15.49 5.93C15.37 6.04 15.31 6.03 15.18 5.94C12.28 3.7 8.05 4.31 5.88 7.26C5.5 7.78 5.19 8.34 4.98 8.95C4.96 9.01 4.93 9.06 4.9 9.11C4.32 8.67 3.74 8.23 3.17 7.79C2.49 7.27 1.82 6.76 1.16 6.24Z" fill="#E94335" fill-opacity="1.000000" fill-rule="nonzero"/>
	<path id="Vector" d="M4.9 13.31C5.09 13.74 5.25 14.18 5.5 14.58C6.51 16.24 7.96 17.31 9.87 17.69C11.6 18.04 13.26 17.81 14.8 16.94C14.85 16.92 14.91 16.89 14.96 16.86C14.98 16.89 15.01 16.92 15.03 16.94C16.19 17.84 17.35 18.73 18.5 19.63C17.95 20.18 17.32 20.62 16.65 21.01C14.7 22.12 12.59 22.57 10.37 22.4C7.6 22.18 5.21 21.09 3.24 19.12C2.38 18.25 1.67 17.28 1.15 16.16C1.63 15.8 2.11 15.43 2.59 15.07C3.36 14.48 4.13 13.9 4.9 13.31Z" fill="#34A853" fill-opacity="1.000000" fill-rule="nonzero"/>
	<path id="Vector" d="M18.51 19.63C17.35 18.73 16.19 17.84 15.04 16.94C15.01 16.92 14.99 16.89 14.96 16.86C15.36 16.55 15.77 16.25 16.1 15.86C16.64 15.2 17 14.47 17.19 13.64C17.22 13.53 17.2 13.5 17.09 13.5C17.04 13.51 16.99 13.5 16.94 13.5C15.11 13.5 13.28 13.5 11.45 13.51C11.25 13.51 11.21 13.45 11.21 13.26C11.22 11.96 11.22 10.66 11.21 9.36C11.21 9.2 11.25 9.15 11.42 9.15C14.77 9.16 18.12 9.16 21.47 9.15C21.62 9.15 21.68 9.19 21.71 9.34C21.98 10.57 21.97 11.81 21.8 13.06C21.67 14.05 21.42 15.01 21.05 15.94C20.5 17.32 19.69 18.52 18.63 19.55C18.59 19.58 18.55 19.6 18.51 19.63Z" fill="#4285F3" fill-opacity="1.000000" fill-rule="nonzero"/>
	<path id="Vector" d="M4.9 13.31C4.13 13.9 3.36 14.48 2.59 15.07C2.11 15.43 1.63 15.8 1.15 16.16C0.78 15.47 0.54 14.74 0.34 13.99C-0.04 12.54 -0.09 11.06 0.11 9.58C0.27 8.41 0.61 7.29 1.15 6.24C1.82 6.76 2.49 7.28 3.16 7.79C3.74 8.24 4.32 8.68 4.9 9.11C4.8 9.59 4.66 10.06 4.61 10.56C4.53 11.45 4.62 12.33 4.87 13.18C4.89 13.22 4.9 13.27 4.9 13.31Z" fill="#FABB06" fill-opacity="1.000000" fill-rule="nonzero"/>
</svg>
