<svg width="14.625000" height="14.625000" viewBox="0 0 14.625 14.625" fill="none" xmlns="http://www.w3.org/2000/svg" xmlns:xlink="http://www.w3.org/1999/xlink">
	<desc>
			Created with Pixso.
	</desc>
	<defs/>
	<path id="Combined-Shape" d="M3.18 8.25C6.23 8.25 6.37 9.28 6.37 11.43C6.37 12.51 6.37 13.28 5.92 13.84C5.4 14.49 4.45 14.62 3.18 14.62C1.92 14.62 0.97 14.49 0.45 13.84C0 13.28 0 12.51 0 11.45L0.56 11.43L0 11.43C0 9.28 0.13 8.25 3.18 8.25ZM11.43 8.25C14.48 8.25 14.62 9.28 14.62 11.43C14.62 12.51 14.62 13.28 14.17 13.84C13.65 14.49 12.7 14.62 11.43 14.62C10.17 14.62 9.22 14.49 8.7 13.84C8.25 13.28 8.25 12.51 8.25 11.45L8.81 11.43L8.25 11.43C8.25 9.28 8.38 8.25 11.43 8.25ZM3.34 9.37L3.18 9.37C1.23 9.37 1.13 9.51 1.12 11.15L1.12 11.79C1.12 12.45 1.15 12.92 1.32 13.13C1.52 13.38 2.11 13.5 3.18 13.5C4.25 13.5 4.84 13.38 5.04 13.13C5.25 12.88 5.25 12.28 5.25 11.45C5.25 9.58 5.25 9.38 3.34 9.37ZM11.59 9.37L11.43 9.37C9.48 9.37 9.38 9.51 9.37 11.15L9.37 11.79C9.37 12.45 9.4 12.92 9.57 13.13C9.77 13.38 10.36 13.5 11.43 13.5C12.5 13.5 13.09 13.38 13.29 13.13C13.5 12.88 13.5 12.28 13.5 11.45C13.5 9.58 13.5 9.38 11.59 9.37ZM3.18 0C6.23 0 6.37 1.03 6.37 3.18C6.37 4.26 6.37 5.03 5.92 5.59C5.4 6.24 4.45 6.37 3.18 6.37C1.92 6.37 0.97 6.24 0.45 5.59C0 5.03 0 4.26 0 3.2L0.56 3.18L0 3.18C0 1.03 0.13 0 3.18 0ZM11.43 0C14.48 0 14.62 1.03 14.62 3.18C14.62 4.26 14.62 5.03 14.17 5.59C13.65 6.24 12.7 6.37 11.43 6.37C10.17 6.37 9.22 6.24 8.7 5.59C8.25 5.03 8.25 4.26 8.25 3.2L8.81 3.18L8.25 3.18C8.25 1.03 8.38 0 11.43 0ZM3.34 1.12L3.18 1.12C1.23 1.12 1.13 1.26 1.12 2.9L1.12 3.54C1.12 4.2 1.15 4.67 1.32 4.88C1.52 5.13 2.11 5.25 3.18 5.25C4.25 5.25 4.84 5.13 5.04 4.88C5.25 4.63 5.25 4.03 5.25 3.2C5.25 1.33 5.25 1.13 3.34 1.12ZM11.59 1.12L11.43 1.12C9.48 1.12 9.38 1.26 9.37 2.9L9.37 3.54C9.37 4.2 9.4 4.67 9.57 4.88C9.77 5.13 10.36 5.25 11.43 5.25C12.5 5.25 13.09 5.13 13.29 4.88C13.5 4.63 13.5 4.03 13.5 3.2C13.5 1.33 13.5 1.13 11.59 1.12Z" fill="#152A16" fill-opacity="1.000000" fill-rule="evenodd"/>
</svg>
