<svg width="9.916656" height="11.666748" viewBox="0 0 9.91666 11.6667" fill="none" xmlns="http://www.w3.org/2000/svg" xmlns:xlink="http://www.w3.org/1999/xlink">
	<desc>
			Created with Pixso.
	</desc>
	<defs/>
	<path id="Vector" d="M4.95 0C7.67 0 9.91 2.16 9.91 4.85C9.91 6.2 9.42 7.45 8.61 8.52C7.72 9.69 6.62 10.71 5.38 11.52C5.09 11.7 4.84 11.72 4.53 11.52C3.28 10.71 2.18 9.69 1.3 8.52C0.49 7.45 0 6.2 0 4.85C0 2.16 2.24 0 4.95 0ZM4.95 3.36C4.05 3.36 3.32 4.11 3.32 5C3.32 5.9 4.05 6.6 4.95 6.6C5.85 6.6 6.59 5.9 6.59 5C6.59 4.11 5.85 3.36 4.95 3.36Z" fill="#5C635A" fill-opacity="1.000000" fill-rule="nonzero"/>
</svg>
