<svg width="18.000000" height="18.000000" viewBox="0 0 18 18" fill="none" xmlns="http://www.w3.org/2000/svg" xmlns:xlink="http://www.w3.org/1999/xlink">
	<desc>
			Created with Pixso.
	</desc>
	<defs>
		<clipPath id="clip4_65">
			<rect id="2 User" rx="-0.500000" width="17.000000" height="17.000000" transform="translate(0.500000 0.500000)" fill="white" fill-opacity="0"/>
		</clipPath>
	</defs>
	<rect id="2 User" rx="-0.500000" width="17.000000" height="17.000000" transform="translate(0.500000 0.500000)" fill="#FFFFFF" fill-opacity="0"/>
	<g clip-path="url(#clip4_65)">
		<path id="Stroke-1" d="M12.32 13.49C12.32 15.17 9.97 15.6 7.19 15.6C4.42 15.6 2.06 15.18 2.06 13.51C2.06 11.83 4.41 11.4 7.19 11.4C9.96 11.4 12.32 11.82 12.32 13.49Z" stroke="#5C635A" stroke-opacity="1.000000" stroke-width="1.300000" stroke-linejoin="round"/>
		<path id="Stroke-3" d="M3.9 5.72C3.9 3.9 5.37 2.43 7.19 2.43C9 2.43 10.48 3.9 10.48 5.72C10.48 7.53 9.02 9 7.21 9.01L7.19 9.01C5.37 9.01 3.9 7.54 3.9 5.72Z" stroke="#5C635A" stroke-opacity="1.000000" stroke-width="1.300000" stroke-linejoin="round"/>
		<path id="Stroke-5" d="M12.36 8.16C13.56 7.99 14.48 6.96 14.49 5.71C14.49 4.48 13.59 3.46 12.41 3.27" stroke="#5C635A" stroke-opacity="1.000000" stroke-width="1.300000" stroke-linejoin="round" stroke-linecap="round"/>
		<path id="Stroke-7" d="M13.94 11.04C15.1 11.22 15.92 11.63 15.92 12.47C15.92 13.04 15.53 13.42 14.92 13.65" stroke="#5C635A" stroke-opacity="1.000000" stroke-width="1.300000" stroke-linejoin="round" stroke-linecap="round"/>
	</g>
</svg>
