<svg width="40.000000" height="40.000000" viewBox="0 0 40 40" fill="none" xmlns="http://www.w3.org/2000/svg" xmlns:xlink="http://www.w3.org/1999/xlink">
	<desc>
			Created with Pixso.
	</desc>
	<defs>
		<clipPath id="clip4_209">
			<rect id="Notification" rx="-0.588235" width="20.000000" height="20.000000" transform="translate(9.999978 10.000100)" fill="white" fill-opacity="0"/>
		</clipPath>
	</defs>
	<circle id="Ellipse 102" cx="20.000000" cy="20.000000" r="19.411764" stroke="#E7E7E7" stroke-opacity="1.000000" stroke-width="1.176471"/>
	<rect id="Notification" rx="-0.588235" width="20.000000" height="20.000000" transform="translate(9.999978 10.000100)" fill="#FFFFFF" fill-opacity="0"/>
	<g clip-path="url(#clip4_209)">
		<path id="Stroke-1" d="M27.49 21.95C27.49 19.39 25.89 19.56 25.89 16.42C25.89 13.96 23.56 11.17 19.99 11.17C16.43 11.17 14.1 13.96 14.1 16.42C14.1 19.56 12.49 19.39 12.49 21.95C12.72 24.53 15.02 25.15 19.99 25.15C24.97 25.15 27.27 24.52 27.49 21.95Z" stroke="#152A16" stroke-opacity="1.000000" stroke-width="1.411765" stroke-linejoin="round"/>
		<path id="Stroke-3" d="M22.1 27.81C20.9 29.15 19.02 29.16 17.81 27.81" stroke="#152A16" stroke-opacity="1.000000" stroke-width="1.411765" stroke-linejoin="round" stroke-linecap="round"/>
	</g>
</svg>