<svg width="15.198486" height="15.541260" viewBox="0 0 15.1985 15.5413" fill="none" xmlns="http://www.w3.org/2000/svg" xmlns:xlink="http://www.w3.org/1999/xlink">
	<desc>
			Created with Pixso.
	</desc>
	<defs/>
	<path id="Combined-Shape" d="M7.3 0C11.33 0 14.6 3.27 14.6 7.3C14.6 9.2 13.87 10.93 12.68 12.23L15.03 14.58C15.25 14.8 15.25 15.15 15.03 15.37C14.92 15.48 14.77 15.54 14.63 15.54C14.49 15.54 14.34 15.48 14.23 15.37L11.86 13C10.61 14 9.02 14.6 7.3 14.6C3.27 14.6 0 11.33 0 7.3C0 3.27 3.27 0 7.3 0ZM7.3 1.12C3.89 1.12 1.12 3.89 1.12 7.3C1.12 10.71 3.89 13.48 7.3 13.48C10.71 13.48 13.48 10.71 13.48 7.3C13.48 3.89 10.71 1.12 7.3 1.12Z" fill="#5C635A" fill-opacity="1.000000" fill-rule="evenodd"/>
</svg>
