<svg width="18.000000" height="18.000000" viewBox="0 0 18 18" fill="none" xmlns="http://www.w3.org/2000/svg" xmlns:xlink="http://www.w3.org/1999/xlink">
	<desc>
			Created with Pixso.
	</desc>
	<defs>
		<clipPath id="clip4_100">
			<rect id="Setting" rx="-0.500000" width="17.000000" height="17.000000" transform="translate(0.500000 0.500000)" fill="white" fill-opacity="0"/>
		</clipPath>
	</defs>
	<rect id="Setting" rx="-0.500000" width="17.000000" height="17.000000" transform="translate(0.500000 0.500000)" fill="#FFFFFF" fill-opacity="0"/>
	<g clip-path="url(#clip4_100)">
		<path id="Path_33946" d="M15.13 4.9C14.74 4.22 13.86 3.98 13.18 4.37C12.85 4.57 12.46 4.62 12.09 4.53C11.73 4.43 11.41 4.19 11.22 3.87C11.1 3.66 11.03 3.42 11.03 3.18C11.04 2.79 10.89 2.42 10.62 2.14C10.35 1.86 9.98 1.7 9.59 1.7L8.65 1.7C8.27 1.7 7.91 1.85 7.64 2.12C7.37 2.39 7.22 2.76 7.22 3.14C7.21 3.92 6.57 4.55 5.79 4.55C5.55 4.55 5.31 4.48 5.1 4.36C4.42 3.97 3.54 4.2 3.15 4.89L2.65 5.71C2.25 6.4 2.48 7.27 3.17 7.67C3.61 7.93 3.88 8.4 3.88 8.91C3.88 9.42 3.61 9.9 3.17 10.15C2.49 10.55 2.25 11.42 2.65 12.1L3.12 12.92C3.3 13.25 3.61 13.5 3.98 13.61C4.35 13.71 4.74 13.66 5.08 13.48C5.4 13.29 5.79 13.23 6.16 13.33C6.53 13.43 6.84 13.67 7.03 14C7.15 14.21 7.22 14.44 7.22 14.69C7.22 15.48 7.86 16.12 8.65 16.12L9.59 16.12C10.38 16.12 11.02 15.48 11.03 14.69C11.03 14.31 11.18 13.95 11.45 13.68C11.72 13.41 12.08 13.26 12.46 13.26C12.7 13.26 12.94 13.33 13.15 13.45C13.83 13.84 14.71 13.61 15.11 12.93L15.6 12.1C15.79 11.78 15.84 11.38 15.75 11.02C15.65 10.65 15.41 10.34 15.08 10.15C14.75 9.96 14.51 9.64 14.41 9.28C14.31 8.91 14.37 8.52 14.56 8.19C14.68 7.97 14.86 7.79 15.08 7.67C15.76 7.27 15.99 6.4 15.6 5.72L15.6 5.71L15.13 4.9Z" stroke="#5C635A" stroke-opacity="1.000000" stroke-width="1.300000" stroke-linejoin="round"/>
		<path id="Ellipse_737" d="M9.13 10.89C8.03 10.89 7.15 10 7.15 8.91C7.15 7.82 8.03 6.93 9.13 6.93C10.22 6.93 11.1 7.82 11.1 8.91C11.1 10 10.22 10.89 9.13 10.89Z" stroke="#5C635A" stroke-opacity="1.000000" stroke-width="1.300000" stroke-linejoin="round"/>
	</g>
</svg>
